<?xml version="1.0" encoding="utf-8"?>
<!-- Generator: Adobe Illustrator 21.0.0, SVG Export Plug-In . SVG Version: 6.00 Build 0)  -->
<svg version="1.1" id="Camada_1" xmlns="http://www.w3.org/2000/svg" xmlns:xlink="http://www.w3.org/1999/xlink" x="0px" y="0px"
	 viewBox="0 0 25.75 15.417" enable-background="new 0 0 25.75 15.417" xml:space="preserve">
<path fill="none" stroke="#C12BBA" stroke-width="0.75" stroke-miterlimit="10" d="M5.521,12.656V3.397
	c0-0.177,0.143-0.32,0.32-0.32H20.2c0.177,0,0.32,0.143,0.32,0.32v7.359c0,0.177-0.143,0.32-0.32,0.32H8.521l-2.413,1.756
	C5.932,13.097,5.521,12.973,5.521,12.656z"/>
<g>
	<g>
		<path fill="#C12BBA" d="M11.309,5.17c0.667,0.667,1.333,1.333,2,2c0-0.141,0-0.283,0-0.424c-0.667,0.667-1.333,1.333-2,2
			c-0.273,0.273,0.151,0.698,0.424,0.424c0.667-0.667,1.333-1.333,2-2c0.115-0.115,0.115-0.309,0-0.424
			c-0.667-0.667-1.333-1.333-2-2C11.46,4.473,11.035,4.897,11.309,5.17L11.309,5.17z"/>
	</g>
</g>
<g>
	<line fill="#FFFFFF" x1="13.875" y1="8.958" x2="15.875" y2="8.958"/>
	<g>
		<path fill="#C12BBA" d="M13.875,9.258c0.667,0,1.333,0,2,0c0.386,0,0.387-0.6,0-0.6c-0.667,0-1.333,0-2,0
			C13.489,8.658,13.488,9.258,13.875,9.258L13.875,9.258z"/>
	</g>
</g>
</svg>
